<mxfile host="app.diagrams.net" modified="2024-04-26T00:22:45.168Z" agent="Mozilla/5.0 (Windows NT 10.0; Win64; x64; rv:124.0) Gecko/20100101 Firefox/124.0" version="24.3.0" etag="Jlx62xVRiW25GBBhVv8b" type="github">
  <diagram name="Page-1" id="l2i2ujgjSNL_ESU7r0xC">
    <mxGraphModel>
      <root>
        <mxCell id="0" />
        <mxCell id="1" parent="0" />
      </root>
    </mxGraphModel>
  </diagram>
</mxfile>
